<svg width="576" height="342" viewBox="0 0 576 342" fill="none" xmlns="http://www.w3.org/2000/svg">
<path opacity="0.05" fill-rule="evenodd" clip-rule="evenodd" d="M292 73.9632C295.314 73.9632 302 76.6248 302 79.9081V125V138V147.188C302 153.691 307.373 155 314 155H348V153.075H310C306.686 153.075 304 150.439 304 147.188V138V125V81.8897C304 75.3232 298.627 72 292 72H200V73.9632H292Z" fill="white"/>
<path opacity="0.05" fill-rule="evenodd" clip-rule="evenodd" d="M473.574 271.106C470.378 271.106 467.787 268.467 467.787 265.212V251H468V199.881C468 193.319 462.627 190 456 190H418V191.94H456C459.314 191.94 466 194.6 466 197.881V243V251V263.212C466 269.722 469.182 273 475.574 273H476V271.106H473.574Z" fill="white"/>
<path opacity="0.05" fill-rule="evenodd" clip-rule="evenodd" d="M85.2524 96.956C88.4964 96.956 95.0841 99.6127 95.0841 102.89V148H95V168.212C95 174.722 98.3726 178 105 178H141V176.106H103C99.6863 176.106 97 173.467 97 170.212V150V148V104.868C97 98.3134 91.7404 95 85.2524 95H73V96.956H85.2524Z" fill="white"/>
<path opacity="0.05" d="M391 281H393V212H391V281Z" fill="white"/>
<path opacity="0.05" d="M185 150.125H187V97.125H185V150.125Z" fill="white"/>
<path opacity="0.05" d="M484.051 165.212C484.051 168.467 481.388 171.106 478.102 171.106H430V173H478.102C484.673 173 486 167.722 486 161.212V91H484.051V165.212Z" fill="white"/>
<path opacity="0.05" d="M283.97 287.212C283.97 290.467 286.642 295.106 289.939 295.106H383V297H291.939C285.345 297 282 291.722 282 285.212V260H283.97V287.212Z" fill="white"/>
<path opacity="0.05" d="M204.955 236.212C204.955 239.467 207.621 242.106 210.91 242.106H267V244H212.91C206.332 244 203 240.722 203 234.212V214H204.955V236.212Z" fill="white"/>
<path opacity="0.05" d="M160.096 261C163.383 261 166.048 258.314 166.048 255V211H168V251C168 257.627 166.67 263 160.096 263H94V261H127.048H160.096Z" fill="white"/>
<g filter="url(#filter0_f_40_68)">
<path d="M334 174H243V178H334V174Z" fill="white" fill-opacity="0.64"/>
</g>
<path d="M353 167.125H223V169.125H353V167.125Z" fill="url(#paint0_linear_40_68)"/>
<path d="M353 174.125H223V176.125H353V174.125Z" fill="url(#paint1_linear_40_68)"/>
<path d="M353 181.125H223V183.125H353V181.125Z" fill="url(#paint2_linear_40_68)"/>
<path d="M77 98C77 90.268 70.732 84 63 84C55.268 84 49 90.268 49 98C49 105.732 55.268 112 63 112C70.732 112 77 105.732 77 98Z" fill="#27272A"/>
<mask id="mask0_40_68" style="mask-type:luminance" maskUnits="userSpaceOnUse" x="55" y="91" width="16" height="14">
<path d="M70.0156 91H56.0156L55.9873 105H69.9873L70.0156 91Z" fill="white"/>
</mask>
<g mask="url(#mask0_40_68)">
<path fill-rule="evenodd" clip-rule="evenodd" d="M58.7838 91.875C58.3186 91.8747 57.8692 92.0454 57.5211 92.3546C57.173 92.6638 56.9505 93.09 56.8959 93.5521C56.8413 94.0141 56.9584 94.4798 57.225 94.8605C57.4916 95.2411 57.889 95.5102 58.3417 95.6165C58.3397 95.6331 58.3387 95.6499 58.3386 95.6667L58.3292 100.333C58.3293 100.35 58.3302 100.367 58.332 100.383C57.8799 100.491 57.4826 100.76 57.2154 101.141C56.9482 101.521 56.8297 101.986 56.8823 102.447C56.935 102.909 57.1552 103.334 57.5011 103.644C57.847 103.953 58.2946 104.124 58.7591 104.125C59.2242 104.125 59.6736 103.955 60.0217 103.645C60.3698 103.336 60.5924 102.91 60.647 102.448C60.7016 101.986 60.5844 101.52 60.3178 101.14C60.0513 100.759 59.6538 100.49 59.2012 100.383C59.2032 100.367 59.2042 100.35 59.2042 100.333L59.2136 95.6667C59.2137 95.6499 59.2127 95.6331 59.2108 95.6165C59.6629 95.5092 60.0602 95.2397 60.3274 94.8593C60.5947 94.4789 60.7132 94.0139 60.6605 93.5526C60.6079 93.0913 60.3877 92.6656 60.0418 92.3564C59.6959 92.0472 59.2482 91.8759 58.7838 91.875ZM57.7591 93.7708C57.7594 93.6368 57.7861 93.504 57.8376 93.3802C57.8892 93.2563 57.9646 93.1438 58.0596 93.049C58.1546 92.9542 58.2673 92.879 58.3912 92.8277C58.5152 92.7764 58.648 92.75 58.782 92.75C58.9161 92.75 59.0488 92.7764 59.1725 92.8277C59.2963 92.879 59.4087 92.9542 59.5033 93.049C59.5979 93.1438 59.6728 93.2563 59.7239 93.3802C59.7749 93.504 59.8011 93.6368 59.8008 93.7708C59.8003 94.0416 59.6922 94.3012 59.5003 94.4927C59.3085 94.6841 59.0486 94.7917 58.7779 94.7917C58.5072 94.7917 58.2477 94.6841 58.0567 94.4927C57.8656 94.3012 57.7586 94.0416 57.7591 93.7708ZM57.7421 102.229C57.7423 102.095 57.769 101.962 57.8205 101.838C57.8721 101.715 57.9475 101.602 58.0425 101.507C58.1375 101.413 58.2502 101.337 58.3741 101.286C58.4981 101.235 58.6309 101.208 58.7649 101.208C58.899 101.208 59.0317 101.235 59.1554 101.286C59.2792 101.337 59.3916 101.413 59.4862 101.507C59.5808 101.602 59.6557 101.715 59.7068 101.838C59.7579 101.962 59.784 102.095 59.7837 102.229C59.7832 102.5 59.6751 102.76 59.4833 102.951C59.2914 103.142 59.0316 103.25 58.7608 103.25C58.4901 103.25 58.2306 103.142 58.0396 102.951C57.8485 102.76 57.7415 102.5 57.7421 102.229ZM65.3254 102.229C65.3264 101.726 65.5271 101.244 65.8834 100.889C66.2396 100.533 66.7222 100.333 67.225 100.333C67.7279 100.333 68.2097 100.533 68.5645 100.889C68.9193 101.244 69.1181 101.726 69.117 102.229C69.116 102.732 68.9153 103.214 68.5591 103.57C68.2028 103.925 67.7202 104.125 67.2174 104.125C66.7146 104.125 66.2328 103.925 65.878 103.57C65.5231 103.214 65.3244 102.732 65.3254 102.229ZM67.2233 101.208C66.9525 101.208 66.6927 101.316 66.5008 101.507C66.309 101.699 66.2009 101.958 66.2004 102.229C66.1998 102.5 66.3069 102.76 66.4979 102.951C66.689 103.142 66.9484 103.25 67.2192 103.25C67.4899 103.25 67.7498 103.142 67.9416 102.951C68.1334 102.76 68.2415 102.5 68.242 102.229C68.2426 101.958 68.1356 101.699 67.9445 101.507C67.7535 101.316 67.494 101.208 67.2233 101.208Z" fill="white"/>
<path d="M67.2393 94.4997C67.51 94.4997 67.7699 94.3921 67.9617 94.2007C68.1535 94.0092 68.2616 93.7496 68.2622 93.4788C68.2627 93.2081 68.1557 92.9484 67.9646 92.757C67.7736 92.5656 67.5141 92.458 67.2434 92.458C66.9726 92.458 66.7128 92.5656 66.5209 92.757C66.3291 92.9484 66.221 93.2081 66.2205 93.4788C66.2199 93.7496 66.327 94.0092 66.518 94.2007C66.7091 94.3921 66.9685 94.4997 67.2393 94.4997ZM68.2539 97.5622C68.2534 97.8329 68.1453 98.0926 67.9535 98.284C67.7616 98.4754 67.5018 98.583 67.231 98.583C66.9603 98.583 66.7008 98.4754 66.5098 98.284C66.3187 98.0926 66.2117 97.8329 66.2122 97.5622C66.2128 97.2914 66.3209 97.0318 66.5127 96.8403C66.7045 96.6489 66.9644 96.5413 67.2351 96.5413C67.5059 96.5413 67.7653 96.6489 67.9564 96.8403C68.1474 97.0318 68.2545 97.2914 68.2539 97.5622Z" fill="white"/>
</g>
<path d="M76.5 98C76.5 90.5442 70.4558 84.5 63 84.5C55.5442 84.5 49.5 90.5442 49.5 98C49.5 105.456 55.5442 111.5 63 111.5C70.4558 111.5 76.5 105.456 76.5 98Z" stroke="#A1A1AA" stroke-opacity="0.2"/>
<path d="M508 72.125C508 59.9747 498.15 50.125 486 50.125C473.85 50.125 464 59.9747 464 72.125C464 84.2753 473.85 94.125 486 94.125C498.15 94.125 508 84.2753 508 72.125Z" fill="#27272A"/>
<mask id="mask1_40_68" style="mask-type:luminance" maskUnits="userSpaceOnUse" x="473" y="60" width="26" height="25">
<path d="M498.023 60.125H474.023L473.974 84.125H497.974L498.023 60.125Z" fill="white"/>
</mask>
<g mask="url(#mask1_40_68)">
<path fill-rule="evenodd" clip-rule="evenodd" d="M476.497 72.125C476.502 69.6054 477.508 67.1891 479.293 65.4075C481.079 63.6259 483.497 62.625 486.016 62.625C488.536 62.625 490.95 63.6259 492.728 65.4075C494.506 67.1891 495.502 69.6054 495.497 72.125C495.492 74.6445 494.486 77.0609 492.701 78.8425C490.916 80.6241 488.498 81.625 485.978 81.625C483.459 81.625 481.044 80.6241 479.266 78.8425C477.488 77.0609 476.492 74.6445 476.497 72.125ZM486.02 61.125C479.945 61.125 475.01 66.05 474.997 72.125C474.985 78.2 479.9 83.125 485.975 83.125C492.05 83.125 496.985 78.2 496.997 72.125C497.01 66.05 492.095 61.125 486.02 61.125ZM485.993 74.125C486.524 74.125 487.033 73.9143 487.409 73.5392C487.784 73.1641 487.996 72.6554 487.997 72.125C487.998 71.5945 487.789 71.0858 487.414 70.7108C487.04 70.3357 486.532 70.125 486.001 70.125C485.471 70.125 484.962 70.3357 484.586 70.7108C484.21 71.0858 483.998 71.5945 483.997 72.125C483.996 72.6554 484.206 73.1641 484.58 73.5392C484.955 73.9143 485.463 74.125 485.993 74.125Z" fill="white"/>
</g>
<path d="M507.5 72.125C507.5 60.2509 497.874 50.625 486 50.625C474.126 50.625 464.5 60.2509 464.5 72.125C464.5 83.9991 474.126 93.625 486 93.625C497.874 93.625 507.5 83.9991 507.5 72.125Z" stroke="#A1A1AA" stroke-opacity="0.2"/>
<path d="M301 242.5C301 232.835 293.165 225 283.5 225C273.835 225 266 232.835 266 242.5C266 252.165 273.835 260 283.5 260C293.165 260 301 252.165 301 242.5Z" fill="#27272A" fill-opacity="0.7"/>
<mask id="mask2_40_68" style="mask-type:luminance" maskUnits="userSpaceOnUse" x="273" y="233" width="21" height="19">
<path d="M293.02 233H274.02L273.982 252H292.982L293.02 233Z" fill="white"/>
</mask>
<g mask="url(#mask2_40_68)">
<path fill-rule="evenodd" clip-rule="evenodd" d="M275.979 242.5C275.983 240.506 276.779 238.593 278.192 237.182C279.605 235.772 281.52 234.979 283.515 234.979C285.509 234.979 287.421 235.772 288.828 237.182C290.236 238.593 291.024 240.506 291.02 242.5C291.016 244.495 290.22 246.408 288.807 247.818C287.393 249.229 285.479 250.021 283.484 250.021C281.489 250.021 279.578 249.229 278.171 247.818C276.763 246.408 275.974 244.495 275.979 242.5ZM283.517 233.792C278.708 233.792 274.801 237.691 274.791 242.5C274.781 247.31 278.672 251.209 283.482 251.209C288.291 251.209 292.198 247.31 292.208 242.5C292.217 237.691 288.326 233.792 283.517 233.792ZM283.496 244.084C283.916 244.084 284.319 243.917 284.617 243.62C284.914 243.323 285.082 242.92 285.083 242.5C285.084 242.08 284.918 241.678 284.621 241.381C284.325 241.084 283.922 240.917 283.503 240.917C283.083 240.917 282.68 241.084 282.382 241.381C282.084 241.678 281.917 242.08 281.916 242.5C281.915 242.92 282.081 243.323 282.377 243.62C282.674 243.917 283.076 244.084 283.496 244.084Z" fill="white"/>
</g>
<path d="M300.5 242.5C300.5 233.111 292.889 225.5 283.5 225.5C274.111 225.5 266.5 233.111 266.5 242.5C266.5 251.889 274.111 259.5 283.5 259.5C292.889 259.5 300.5 251.889 300.5 242.5Z" stroke="#A1A1AA" stroke-opacity="0.2"/>
<path d="M96 259C96 246.85 86.1503 237 74 237C61.8497 237 52 246.85 52 259C52 271.15 61.8497 281 74 281C86.1503 281 96 271.15 96 259Z" fill="#27272A" fill-opacity="0.7"/>
<mask id="mask3_40_68" style="mask-type:luminance" maskUnits="userSpaceOnUse" x="61" y="247" width="26" height="24">
<path d="M86.0234 247H62.0234L61.975 271H85.975L86.0234 247Z" fill="white"/>
</mask>
<g mask="url(#mask3_40_68)">
<path d="M79.2822 256.28C79.4149 256.138 79.4875 255.95 79.4844 255.755C79.4814 255.561 79.403 255.376 79.2659 255.238C79.1288 255.101 78.9435 255.022 78.7493 255.019C78.555 255.015 78.3668 255.087 78.2243 255.22L72.2423 261.19L69.7773 258.72C69.6353 258.587 69.4474 258.515 69.2531 258.519C69.0588 258.522 68.8733 258.601 68.7356 258.738C68.5979 258.876 68.5188 259.061 68.515 259.255C68.5112 259.45 68.5829 259.638 68.7151 259.78L71.7091 262.78C71.8494 262.92 72.0399 262.999 72.2386 262.999C72.4374 262.999 72.6281 262.92 72.7691 262.78L79.2822 256.28Z" fill="white"/>
<path fill-rule="evenodd" clip-rule="evenodd" d="M74.0195 248C67.9445 248 63.0096 252.925 62.9973 259C62.985 265.075 67.9001 270 73.9751 270C80.0501 270 84.985 265.075 84.9973 259C85.0096 252.925 80.0945 248 74.0195 248ZM64.4973 259C64.5024 256.48 65.5082 254.064 67.2934 252.282C69.0786 250.501 71.4969 249.5 74.0165 249.5C76.5361 249.5 78.9504 250.501 80.7284 252.282C82.5064 254.064 83.5024 256.48 83.4973 259C83.4922 261.52 82.4864 263.936 80.7013 265.717C78.9161 267.499 76.4977 268.5 73.9781 268.5C71.4586 268.5 69.0442 267.499 67.2662 265.717C65.4882 263.936 64.4922 261.52 64.4973 259Z" fill="white"/>
</g>
<path d="M95.5 259C95.5 247.126 85.8741 237.5 74 237.5C62.1259 237.5 52.5 247.126 52.5 259C52.5 270.874 62.1259 280.5 74 280.5C85.8741 280.5 95.5 270.874 95.5 259Z" stroke="#A1A1AA" stroke-opacity="0.2"/>
<path d="M413.875 128H367.875C356.829 128 347.875 136.954 347.875 148V194C347.875 205.046 356.829 214 367.875 214H413.875C424.921 214 433.875 205.046 433.875 194V148C433.875 136.954 424.921 128 413.875 128Z" fill="#18181B"/>
<path d="M413.875 128H367.875C356.829 128 347.875 136.954 347.875 148V194C347.875 205.046 356.829 214 367.875 214H413.875C424.921 214 433.875 205.046 433.875 194V148C433.875 136.954 424.921 128 413.875 128Z" fill="white" fill-opacity="0.04"/>
<path d="M390.874 152.307C386.323 152.307 381.92 153.926 378.454 156.876C374.987 159.825 372.684 163.911 371.955 168.404C371.226 172.896 372.119 177.501 374.475 181.395C376.83 185.289 380.495 188.218 384.812 189.658C385.771 189.825 386.13 189.25 386.13 188.747C386.13 188.292 386.106 186.783 386.106 185.177C381.29 186.064 380.045 184.004 379.661 182.925C379.236 181.877 378.562 180.948 377.697 180.218C377.026 179.859 376.068 178.972 377.673 178.948C378.286 179.015 378.873 179.228 379.386 179.57C379.899 179.912 380.322 180.373 380.62 180.913C380.882 181.384 381.234 181.798 381.657 182.133C382.08 182.467 382.564 182.715 383.083 182.862C383.601 183.009 384.144 183.052 384.679 182.989C385.214 182.926 385.732 182.758 386.202 182.494C386.285 181.52 386.719 180.609 387.424 179.931C383.159 179.451 378.703 177.798 378.703 170.467C378.676 168.562 379.379 166.719 380.668 165.316C380.082 163.66 380.15 161.844 380.859 160.237C380.859 160.237 382.464 159.734 386.13 162.201C389.266 161.339 392.577 161.339 395.713 162.201C399.379 159.71 400.984 160.237 400.984 160.237C401.693 161.844 401.762 163.661 401.176 165.316C402.468 166.717 403.172 168.561 403.14 170.467C403.14 177.822 398.66 179.451 394.396 179.931C394.853 180.394 395.205 180.951 395.429 181.563C395.652 182.175 395.741 182.827 395.689 183.476C395.689 186.04 395.665 188.1 395.665 188.747C395.665 189.25 396.025 189.849 396.983 189.658C401.293 188.207 404.947 185.271 407.293 181.375C409.638 177.479 410.523 172.876 409.789 168.388C409.055 163.9 406.75 159.819 403.285 156.873C399.82 153.927 395.421 152.309 390.874 152.307Z" fill="white"/>
<path d="M413.875 128.5H367.875C357.105 128.5 348.375 137.23 348.375 148V194C348.375 204.77 357.105 213.5 367.875 213.5H413.875C424.645 213.5 433.375 204.77 433.375 194V148C433.375 137.23 424.645 128.5 413.875 128.5Z" stroke="url(#paint3_linear_40_68)" stroke-opacity="0.3"/>
<path d="M208 76C208 63.8497 198.15 54 186 54C173.85 54 164 63.8497 164 76C164 88.1503 173.85 98 186 98C198.15 98 208 88.1503 208 76Z" fill="#27272A"/>
<path fill-rule="evenodd" clip-rule="evenodd" d="M178.767 67C178.537 67 178.309 67.0453 178.097 67.1332C177.884 67.2212 177.691 67.3501 177.528 67.5126C177.365 67.6751 177.236 67.868 177.148 68.0803C177.059 68.2926 177.013 68.5202 177.013 68.75C177.013 68.9798 177.057 69.2074 177.145 69.4197C177.232 69.632 177.361 69.8249 177.523 69.9874C177.685 70.1499 177.878 70.2788 178.09 70.3668C178.302 70.4547 178.53 70.5 178.759 70.5C179.224 70.5 179.669 70.3156 179.998 69.9874C180.327 69.6592 180.512 69.2141 180.513 68.75C180.514 68.2859 180.33 67.8407 180.003 67.5126C179.675 67.1844 179.231 67 178.767 67ZM175.513 68.75C175.515 67.888 175.859 67.0614 176.47 66.4519C177.08 65.8424 177.908 65.5 178.77 65.5C179.631 65.5 180.457 65.8424 181.066 66.4519C181.674 67.0614 182.015 67.888 182.013 68.75C182.011 69.6119 181.667 70.4386 181.056 71.0481C180.446 71.6576 179.618 72 178.756 72C177.894 72 177.068 71.6576 176.46 71.0481C175.852 70.4386 175.511 69.6119 175.513 68.75ZM178.737 81.5C178.273 81.5 177.828 81.6843 177.499 82.0125C177.17 82.3407 176.985 82.7858 176.984 83.25C176.983 83.7141 177.166 84.1592 177.494 84.4874C177.821 84.8156 178.266 85 178.73 85C179.194 85 179.64 84.8156 179.969 84.4874C180.297 84.1592 180.483 83.7141 180.484 83.25C180.485 82.7858 180.301 82.3407 179.974 82.0125C179.646 81.6843 179.201 81.5 178.737 81.5ZM175.484 83.25C175.485 82.388 175.829 81.5614 176.44 80.9519C177.051 80.3424 177.878 80 178.74 80C179.602 80 180.428 80.3424 181.036 80.9519C181.645 81.5614 181.985 82.388 181.984 83.25C181.982 84.1119 181.638 84.9386 181.027 85.5481C180.416 86.1575 179.589 86.5 178.727 86.5C177.865 86.5 177.039 86.1575 176.431 85.5481C175.823 84.9386 175.482 84.1119 175.484 83.25ZM193.237 81.5C192.773 81.5 192.328 81.6843 191.999 82.0125C191.67 82.3407 191.485 82.7858 191.484 83.25C191.483 83.7141 191.666 84.1592 191.994 84.4874C192.321 84.8156 192.766 85 193.23 85C193.694 85 194.14 84.8156 194.469 84.4874C194.797 84.1592 194.983 83.7141 194.984 83.25C194.985 82.7858 194.801 82.3407 194.474 82.0125C194.146 81.6843 193.701 81.5 193.237 81.5ZM189.984 83.25C189.985 82.388 190.329 81.5614 190.94 80.9519C191.551 80.3424 192.378 80 193.24 80C194.102 80 194.928 80.3424 195.536 80.9519C196.145 81.5614 196.485 82.388 196.484 83.25C196.482 84.1119 196.138 84.9386 195.527 85.5481C194.916 86.1575 194.089 86.5 193.227 86.5C192.365 86.5 191.539 86.1575 190.931 85.5481C190.323 84.9386 189.982 84.1119 189.984 83.25Z" fill="white"/>
<path fill-rule="evenodd" clip-rule="evenodd" d="M178.758 71.2493C178.957 71.2493 179.147 71.3283 179.288 71.469C179.428 71.6096 179.507 71.8004 179.506 71.9993L179.49 79.9993C179.49 80.1982 179.41 80.389 179.27 80.5296C179.129 80.6703 178.938 80.7493 178.739 80.7493C178.54 80.7493 178.349 80.6703 178.209 80.5296C178.068 80.389 177.99 80.1982 177.99 79.9993L178.006 71.9993C178.007 71.8004 178.086 71.6096 178.227 71.469C178.368 71.3283 178.559 71.2493 178.758 71.2493ZM187.424 65.7193C187.564 65.86 187.643 66.0506 187.642 66.2493C187.642 66.4481 187.563 66.6387 187.422 66.7793L186.199 67.9993H190.264C191.259 67.9993 192.212 68.3944 192.914 69.0977C193.616 69.8009 194.009 70.7548 194.007 71.7493L193.989 80.4993C193.989 80.6982 193.909 80.889 193.768 81.0296C193.628 81.1703 193.437 81.2493 193.238 81.2493C193.039 81.2493 192.848 81.1703 192.708 81.0296C192.567 80.889 192.489 80.6982 192.489 80.4993L192.507 71.7493C192.508 71.1526 192.272 70.5803 191.851 70.1583C191.43 69.7364 190.858 69.4993 190.261 69.4993H186.197L187.415 70.7193C187.551 70.8608 187.626 71.0503 187.624 71.247C187.622 71.4436 187.543 71.6317 187.403 71.7707C187.264 71.9097 187.076 71.9885 186.879 71.9901C186.682 71.9917 186.493 71.916 186.352 71.7793L183.857 69.2793C183.717 69.1387 183.638 68.9481 183.639 68.7493C183.639 68.5506 183.718 68.36 183.859 68.2193L186.364 65.7193C186.505 65.5789 186.696 65.5 186.895 65.5C187.093 65.5 187.284 65.5789 187.424 65.7193Z" fill="white"/>
<path d="M207.5 76C207.5 64.1259 197.874 54.5 186 54.5C174.126 54.5 164.5 64.1259 164.5 76C164.5 87.8741 174.126 97.5 186 97.5C197.874 97.5 207.5 87.8741 207.5 76Z" stroke="#A1A1AA" stroke-opacity="0.2"/>
<path d="M408 295.125C408 286.288 400.837 279.125 392 279.125C383.163 279.125 376 286.288 376 295.125C376 303.962 383.163 311.125 392 311.125C400.837 311.125 408 303.962 408 295.125Z" fill="#27272A" fill-opacity="0.7"/>
<path fill-rule="evenodd" clip-rule="evenodd" d="M392.349 289.317C391.59 289.263 391.006 289.892 391.006 290.604V291.218C391.006 292.773 389.948 293.426 389.387 293.668C389.29 293.708 389.187 293.734 389.082 293.744C389.065 293.486 388.95 293.244 388.761 293.067C388.572 292.89 388.323 292.792 388.064 292.792H387.189C386.918 292.792 386.658 292.899 386.467 293.091C386.276 293.282 386.168 293.542 386.168 293.812V299.937C386.168 300.502 386.625 300.958 387.189 300.958H388.064C388.317 300.958 388.562 300.864 388.75 300.694C388.938 300.523 389.055 300.289 389.08 300.037C389.569 300.072 390.052 300.209 390.649 300.378L391 300.478C391.854 300.714 392.875 300.958 394.234 300.958C395.511 300.958 396.389 300.839 396.908 300.158C397.154 299.835 397.287 299.426 397.384 298.962C397.47 298.549 397.537 298.046 397.615 297.457L397.644 297.23C397.831 295.838 397.836 294.791 397.514 294.083C397.343 293.707 397.081 293.427 396.724 293.248C396.38 293.076 395.975 293.013 395.536 293.013H394.34L394.373 292.762C394.388 292.657 394.402 292.545 394.417 292.429C394.452 292.147 394.486 291.842 394.486 291.59C394.486 290.864 394.356 290.276 393.949 289.874C393.55 289.481 392.976 289.361 392.349 289.317ZM389.085 299.16C389.702 299.198 390.297 299.368 390.903 299.541L391.235 299.634C392.055 299.862 392.988 300.083 394.234 300.083C395.563 300.083 395.987 299.923 396.212 299.628C396.338 299.463 396.438 299.209 396.527 298.783C396.606 298.404 396.668 297.937 396.748 297.338L396.777 297.114C396.964 295.714 396.925 294.9 396.718 294.445C396.624 294.24 396.499 294.114 396.333 294.031C396.155 293.941 395.901 293.888 395.536 293.888H394.154C393.757 293.888 393.4 293.555 393.447 293.113C393.463 292.971 393.485 292.8 393.509 292.627L393.549 292.319C393.584 292.038 393.611 291.782 393.611 291.59C393.611 290.934 393.486 290.647 393.335 290.497C393.174 290.34 392.883 290.232 392.288 290.189C392.083 290.175 391.881 290.349 391.881 290.604V291.218C391.881 293.289 390.429 294.171 389.734 294.471C389.517 294.564 389.294 294.606 389.085 294.623V299.161V299.16ZM387.189 300.083C387.15 300.083 387.113 300.068 387.086 300.041C387.058 300.013 387.043 299.976 387.043 299.937V293.812C387.043 293.774 387.058 293.737 387.086 293.709C387.113 293.682 387.15 293.667 387.189 293.667H388.064C388.102 293.667 388.14 293.682 388.167 293.709C388.194 293.737 388.21 293.774 388.21 293.812V299.937C388.21 299.976 388.194 300.013 388.167 300.041C388.14 300.068 388.102 300.083 388.064 300.083H387.189Z" fill="white"/>
<path d="M407.5 295.125C407.5 286.565 400.56 279.625 392 279.625C383.44 279.625 376.5 286.565 376.5 295.125C376.5 303.685 383.44 310.625 392 310.625C400.56 310.625 407.5 303.685 407.5 295.125Z" stroke="#A1A1AA" stroke-opacity="0.2"/>
<path d="M207 128H161C149.954 128 141 136.954 141 148V194C141 205.046 149.954 214 161 214H207C218.046 214 227 205.046 227 194V148C227 136.954 218.046 128 207 128Z" fill="#18181B"/>
<path d="M207 128H161C149.954 128 141 136.954 141 148V194C141 205.046 149.954 214 161 214H207C218.046 214 227 205.046 227 194V148C227 136.954 218.046 128 207 128Z" fill="white" fill-opacity="0.04"/>
<path d="M171.374 158.322C171.022 157.852 170.687 157.475 170.189 157.298C169.627 157.047 168.996 157.031 168.405 157.369C168.185 157.495 168.038 157.613 167.914 157.752C167.228 158.384 167.022 159.4 167.477 160.256L167.479 160.255C167.583 160.481 167.685 160.674 167.81 160.908L173.741 170.322L176.437 174.6L177.478 176.254L181.866 183.5C182.122 183.922 182.49 184.273 182.933 184.516C183.376 184.76 183.879 184.888 184.391 184.888C184.902 184.888 185.405 184.76 185.848 184.516C186.291 184.273 186.659 183.922 186.915 183.5L200.379 161.281C200.635 160.859 200.77 160.38 200.77 159.893C200.771 159.405 200.636 158.926 200.38 158.504C200.125 158.082 199.757 157.731 199.313 157.487C198.87 157.243 198.368 157.115 197.856 157.115H187.743C183.736 157.115 180.781 158.792 178.748 162.063L178.152 163.047L178.003 163.293L180.874 167.291L182.642 164.374C183.992 162.252 185.526 161.478 187.908 161.478L194.965 161.48L184.386 178.936L181.386 173.975L181.388 173.971L181.276 173.793L179.107 170.208L176.363 165.997L173.222 161.011L171.374 158.322Z" fill="white"/>
<path d="M169.566 177.465C169.495 177.585 169.411 177.755 169.367 177.882C169.15 178.554 169.298 179.282 169.74 179.824C169.762 179.854 169.785 179.881 169.809 179.904C169.966 180.079 170.156 180.231 170.376 180.352C171.424 180.929 172.756 180.581 173.36 179.575C173.485 179.439 173.595 179.292 173.69 179.135L175.064 176.868L172.293 172.71L172.132 172.975L171.811 173.506L171.167 174.567L169.566 177.465Z" fill="white"/>
<path d="M207 128.5H161C150.23 128.5 141.5 137.23 141.5 148V194C141.5 204.77 150.23 213.5 161 213.5H207C217.77 213.5 226.5 204.77 226.5 194V148C226.5 137.23 217.77 128.5 207 128.5Z" stroke="url(#paint4_linear_40_68)" stroke-opacity="0.4"/>
<path d="M519 271C519 258.85 509.15 249 497 249C484.85 249 475 258.85 475 271C475 283.15 484.85 293 497 293C509.15 293 519 283.15 519 271Z" fill="#27272A" fill-opacity="0.7"/>
<path fill-rule="evenodd" clip-rule="evenodd" d="M489.767 262C489.537 262 489.309 262.045 489.097 262.133C488.884 262.221 488.691 262.35 488.528 262.513C488.365 262.675 488.236 262.868 488.148 263.08C488.059 263.293 488.013 263.52 488.013 263.75C488.013 263.98 488.057 264.207 488.145 264.42C488.232 264.632 488.361 264.825 488.523 264.987C488.685 265.15 488.878 265.279 489.09 265.367C489.302 265.455 489.53 265.5 489.759 265.5C490.224 265.5 490.669 265.316 490.998 264.987C491.327 264.659 491.512 264.214 491.513 263.75C491.514 263.286 491.33 262.841 491.003 262.513C490.675 262.184 490.231 262 489.767 262ZM486.513 263.75C486.515 262.888 486.859 262.061 487.47 261.452C488.08 260.842 488.908 260.5 489.77 260.5C490.631 260.5 491.457 260.842 492.066 261.452C492.674 262.061 493.015 262.888 493.013 263.75C493.011 264.612 492.667 265.439 492.056 266.048C491.446 266.658 490.618 267 489.756 267C488.894 267 488.068 266.658 487.46 266.048C486.852 265.439 486.511 264.612 486.513 263.75ZM489.737 276.5C489.273 276.5 488.828 276.684 488.499 277.013C488.17 277.341 487.985 277.786 487.984 278.25C487.983 278.714 488.166 279.159 488.494 279.487C488.821 279.816 489.266 280 489.73 280C490.194 280 490.64 279.816 490.969 279.487C491.297 279.159 491.483 278.714 491.484 278.25C491.485 277.786 491.301 277.341 490.974 277.013C490.646 276.684 490.201 276.5 489.737 276.5ZM486.484 278.25C486.485 277.388 486.829 276.561 487.44 275.952C488.051 275.342 488.878 275 489.74 275C490.602 275 491.428 275.342 492.036 275.952C492.645 276.561 492.985 277.388 492.984 278.25C492.982 279.112 492.638 279.939 492.027 280.548C491.416 281.158 490.589 281.5 489.727 281.5C488.865 281.5 488.039 281.158 487.431 280.548C486.823 279.939 486.482 279.112 486.484 278.25ZM504.237 276.5C503.773 276.5 503.328 276.684 502.999 277.013C502.67 277.341 502.485 277.786 502.484 278.25C502.483 278.714 502.666 279.159 502.994 279.487C503.321 279.816 503.766 280 504.23 280C504.694 280 505.14 279.816 505.469 279.487C505.797 279.159 505.983 278.714 505.984 278.25C505.985 277.786 505.801 277.341 505.474 277.013C505.146 276.684 504.701 276.5 504.237 276.5ZM500.984 278.25C500.985 277.388 501.329 276.561 501.94 275.952C502.551 275.342 503.378 275 504.24 275C505.102 275 505.928 275.342 506.536 275.952C507.145 276.561 507.485 277.388 507.484 278.25C507.482 279.112 507.138 279.939 506.527 280.548C505.916 281.158 505.089 281.5 504.227 281.5C503.365 281.5 502.539 281.158 501.931 280.548C501.323 279.939 500.982 279.112 500.984 278.25Z" fill="white"/>
<path fill-rule="evenodd" clip-rule="evenodd" d="M489.758 266.249C489.957 266.249 490.147 266.328 490.288 266.469C490.428 266.61 490.507 266.8 490.506 266.999L490.49 274.999C490.49 275.198 490.41 275.389 490.27 275.53C490.129 275.67 489.938 275.749 489.739 275.749C489.54 275.749 489.349 275.67 489.209 275.53C489.068 275.389 488.99 275.198 488.99 274.999L489.006 266.999C489.007 266.8 489.086 266.61 489.227 266.469C489.368 266.328 489.559 266.249 489.758 266.249ZM498.424 260.719C498.564 260.86 498.643 261.051 498.642 261.249C498.642 261.448 498.563 261.639 498.422 261.779L497.199 262.999H501.264C502.259 262.999 503.212 263.394 503.914 264.098C504.616 264.801 505.009 265.755 505.007 266.749L504.989 275.499C504.989 275.698 504.909 275.889 504.768 276.03C504.628 276.17 504.437 276.249 504.238 276.249C504.039 276.249 503.848 276.17 503.708 276.03C503.567 275.889 503.489 275.698 503.489 275.499L503.507 266.749C503.508 266.153 503.272 265.58 502.851 265.158C502.43 264.736 501.858 264.499 501.261 264.499H497.197L498.415 265.719C498.551 265.861 498.626 266.05 498.624 266.247C498.622 266.444 498.543 266.632 498.403 266.771C498.264 266.91 498.076 266.988 497.879 266.99C497.682 266.992 497.493 266.916 497.352 266.779L494.857 264.279C494.717 264.139 494.638 263.948 494.639 263.749C494.639 263.551 494.718 263.36 494.859 263.219L497.364 260.719C497.505 260.579 497.696 260.5 497.895 260.5C498.093 260.5 498.284 260.579 498.424 260.719Z" fill="white"/>
<path d="M518.5 271C518.5 259.126 508.874 249.5 497 249.5C485.126 249.5 475.5 259.126 475.5 271C475.5 282.874 485.126 292.5 497 292.5C508.874 292.5 518.5 282.874 518.5 271Z" stroke="#A1A1AA" stroke-opacity="0.2"/>
<rect x="154" y="139" width="64" height="64" rx="7" fill="#212124"/>
<g style="mix-blend-mode:screen">
<g style="mix-blend-mode:saturation" filter="url(#filter1_di_40_68)">
<path d="M167.407 193.615C169.301 193.604 169.261 187.933 176.29 194.962C183.32 201.992 174.522 188.807 174.515 187.085L174.425 170.901C174.399 169.743 174.626 168.592 175.093 167.515C175.561 166.437 176.259 165.456 177.148 164.626C178.037 163.796 179.098 163.136 180.27 162.683C181.442 162.231 183.767 161.825 184.357 161.858C184.946 161.89 185.633 161.867 187.659 162.348C189.686 162.828 190.079 163.533 190.976 164.355C191.874 165.176 192.439 166.36 192.918 167.433C193.397 168.506 193.637 169.655 193.624 170.814L193.713 186.997C193.722 188.72 196.749 192.691 190.832 193.615C184.914 194.538 198.998 193.47 200.892 193.461C202.787 193.453 204.6 192.76 205.933 191.535C207.266 190.311 208.01 188.655 208 186.932L207.901 169.035C207.885 166.182 207.252 163.36 206.037 160.73C204.822 158.1 205.132 150.476 202.903 148.469C200.673 146.462 195.949 150.111 193.045 149.032C190.141 147.954 187.032 147.406 183.895 147.421C180.758 147.435 177.655 148.011 174.763 149.116C171.871 150.221 166.527 147.136 164.32 149.163C162.113 151.191 163.087 158.29 161.901 160.931C160.715 163.572 160.113 166.4 160.129 169.253L160.227 187.15C160.239 188.872 161.001 190.521 162.347 191.733C163.693 192.944 165.513 193.621 167.407 193.615ZM163.254 169.24C163.226 164.232 165.387 159.42 169.261 155.862C173.135 152.303 178.405 150.289 183.911 150.264C189.417 150.239 194.708 152.205 198.621 155.728C202.534 159.251 204.748 164.043 204.776 169.051L204.875 186.946C204.871 187.91 204.449 188.833 203.7 189.515C202.951 190.197 201.936 190.583 200.876 190.587C199.817 190.592 198.798 190.216 198.041 189.541C197.285 188.866 196.853 187.946 196.838 186.983L196.749 170.799C196.732 167.73 195.375 164.793 192.977 162.634C190.579 160.474 187.69 155.203 184.315 155.218C180.94 155.234 177.356 160.535 174.982 162.716C172.608 164.897 171.283 167.846 171.3 170.915L171.389 187.099C171.395 188.068 170.977 189 170.227 189.689C169.477 190.377 168.457 190.767 167.391 190.772C166.325 190.777 165.301 190.396 164.544 189.714C163.787 189.033 163.358 188.105 163.353 187.136L163.254 169.24Z" fill="url(#paint5_linear_40_68)"/>
<path d="M163.254 169.24C163.226 164.232 165.387 159.42 169.261 155.862C173.135 152.303 178.405 150.289 183.911 150.264C189.417 150.239 194.708 152.205 198.621 155.728C202.534 159.251 204.748 164.043 204.776 169.051L204.875 186.946C204.871 187.91 204.449 188.833 203.7 189.515C202.951 190.197 201.936 190.583 200.876 190.587C199.817 190.592 198.798 190.216 198.041 189.541C197.285 188.866 196.853 187.946 196.838 186.983L196.749 170.799C196.732 167.73 195.375 164.793 192.977 162.634C190.579 160.474 187.69 155.203 184.315 155.218C180.94 155.234 177.356 160.535 174.982 162.716C172.608 164.897 171.283 167.846 171.3 170.915L171.389 187.099C171.395 188.068 170.977 189 170.227 189.689C169.477 190.377 168.457 190.767 167.391 190.772C166.325 190.777 165.301 190.396 164.544 189.714C163.787 189.033 163.358 188.105 163.353 187.136L163.254 169.24Z" fill="url(#paint6_linear_40_68)"/>
</g>
</g>
<defs>
<filter id="filter0_f_40_68" x="200" y="131" width="177" height="90" filterUnits="userSpaceOnUse" color-interpolation-filters="sRGB">
<feFlood flood-opacity="0" result="BackgroundImageFix"/>
<feBlend mode="normal" in="SourceGraphic" in2="BackgroundImageFix" result="shape"/>
<feGaussianBlur stdDeviation="21.5" result="effect1_foregroundBlur_40_68"/>
</filter>
<filter id="filter1_di_40_68" x="156.128" y="147.42" width="55.8716" height="57.5898" filterUnits="userSpaceOnUse" color-interpolation-filters="sRGB">
<feFlood flood-opacity="0" result="BackgroundImageFix"/>
<feColorMatrix in="SourceAlpha" type="matrix" values="0 0 0 0 0 0 0 0 0 0 0 0 0 0 0 0 0 0 127 0" result="hardAlpha"/>
<feOffset dy="4"/>
<feGaussianBlur stdDeviation="2"/>
<feComposite in2="hardAlpha" operator="out"/>
<feColorMatrix type="matrix" values="0 0 0 0 0 0 0 0 0 0 0 0 0 0 0 0 0 0 0.25 0"/>
<feBlend mode="normal" in2="BackgroundImageFix" result="effect1_dropShadow_40_68"/>
<feBlend mode="normal" in="SourceGraphic" in2="effect1_dropShadow_40_68" result="shape"/>
<feColorMatrix in="SourceAlpha" type="matrix" values="0 0 0 0 0 0 0 0 0 0 0 0 0 0 0 0 0 0 127 0" result="hardAlpha"/>
<feOffset dy="4"/>
<feGaussianBlur stdDeviation="2"/>
<feComposite in2="hardAlpha" operator="arithmetic" k2="-1" k3="1"/>
<feColorMatrix type="matrix" values="0 0 0 0 0 0 0 0 0 0 0 0 0 0 0 0 0 0 0.25 0"/>
<feBlend mode="normal" in2="shape" result="effect2_innerShadow_40_68"/>
</filter>
<linearGradient id="paint0_linear_40_68" x1="347" y1="167.125" x2="226" y2="167.125" gradientUnits="userSpaceOnUse">
<stop stop-color="white" stop-opacity="0"/>
<stop offset="0.510417" stop-color="white"/>
<stop offset="1" stop-color="white" stop-opacity="0"/>
</linearGradient>
<linearGradient id="paint1_linear_40_68" x1="347" y1="174.125" x2="226" y2="174.125" gradientUnits="userSpaceOnUse">
<stop stop-color="white" stop-opacity="0"/>
<stop offset="0.510417" stop-color="white"/>
<stop offset="1" stop-color="white" stop-opacity="0"/>
</linearGradient>
<linearGradient id="paint2_linear_40_68" x1="347" y1="181.125" x2="226" y2="181.125" gradientUnits="userSpaceOnUse">
<stop stop-color="white" stop-opacity="0"/>
<stop offset="0.510417" stop-color="white"/>
<stop offset="1" stop-color="white" stop-opacity="0"/>
</linearGradient>
<linearGradient id="paint3_linear_40_68" x1="419.727" y1="132.161" x2="372.288" y2="208.729" gradientUnits="userSpaceOnUse">
<stop stop-color="white"/>
<stop offset="1" stop-color="#393940" stop-opacity="0"/>
</linearGradient>
<linearGradient id="paint4_linear_40_68" x1="148.49" y1="132.439" x2="227" y2="214" gradientUnits="userSpaceOnUse">
<stop stop-color="white"/>
<stop offset="1" stop-color="#393940" stop-opacity="0"/>
</linearGradient>
<linearGradient id="paint5_linear_40_68" x1="184.064" y1="147.42" x2="184.064" y2="197.01" gradientUnits="userSpaceOnUse">
<stop stop-color="white"/>
<stop offset="0.87" stop-color="white"/>
<stop offset="1" stop-color="white"/>
</linearGradient>
<linearGradient id="paint6_linear_40_68" x1="184.064" y1="147.42" x2="184.064" y2="197.01" gradientUnits="userSpaceOnUse">
<stop stop-color="white"/>
<stop offset="0.87" stop-color="white"/>
<stop offset="1" stop-color="white"/>
</linearGradient>
</defs>
</svg>
